<?xml version="1.0" encoding="UTF-8"?>
<svg version="1.1" xmlns="http://www.w3.org/2000/svg" width="256" height="254">
<path d="M0 0 C84.48 0 168.96 0 256 0 C256 83.82 256 167.64 256 254 C171.52 254 87.04 254 0 254 C0 170.18 0 86.36 0 0 Z " fill="#464646" transform="translate(0,0)"/>
<path d="M0 0 C10.56 0 21.12 0 32 0 C32 4.95 32 9.9 32 15 C26.72 15 21.44 15 16 15 C16 20.61 16 26.22 16 32 C10.72 32 5.44 32 0 32 C0 37.28 0 42.56 0 48 C21.12 48 42.24 48 64 48 C64 53.28 64 58.56 64 64 C69.61 64 75.22 64 81 64 C81 68.95 81 73.9 81 79 C85.95 79 90.9 79 96 79 C96 68.44 96 57.88 96 47 C80.49 47 64.98 47 49 47 C49 42.05 49 37.1 49 32 C54.28 32 59.56 32 65 32 C65 26.72 65 21.44 65 16 C96.35 16 127.7 16 160 16 C160 20.95 160 25.9 160 31 C153.59949547 31.14469635 147.19894351 31.28700332 140.79833984 31.42724609 C138.62807843 31.47511715 136.45783046 31.52360287 134.28759766 31.57275391 C121.85503931 31.85387775 109.43590797 32.06007685 97 32 C97 37.28 97 42.56 97 48 C112.51 48 128.02 48 144 48 C144.33 52.95 144.66 57.9 145 63 C160.84 63.495 160.84 63.495 177 64 C177 58.72 177 53.44 177 48 C171.72 48 166.44 48 161 48 C161 42.72 161 37.44 161 32 C171.23 32 181.46 32 192 32 C192 63.35 192 94.7 192 127 C107.52 127 23.04 127 -64 127 C-64 100.93 -64 74.86 -64 48 C-48.16 48 -32.32 48 -16 48 C-16 42.39 -16 36.78 -16 31 C-26.56 31 -37.12 31 -48 31 C-48 26.05 -48 21.1 -48 16 C-43.73573666 15.85509785 -39.47147675 15.71193541 -35.20703125 15.57275391 C-33.76429151 15.52519457 -32.32158125 15.47673011 -30.87890625 15.42724609 C-20.5793777 15.07481809 -10.306032 14.95357643 0 15 C0 10.05 0 5.1 0 0 Z " fill="#444444" transform="translate(64,127)"/>
<path d="M0 0 C26.4 0 52.8 0 80 0 C80 5.61 80 11.22 80 17 C69.77 17 59.54 17 49 17 C49 21.95 49 26.9 49 32 C53.95 32 58.9 32 64 32 C64 37.28 64 42.56 64 48 C69.28 48 74.56 48 80 48 C80 43.05 80 38.1 80 33 C90.56 33 101.12 33 112 33 C112 38.28 112 43.56 112 49 C128.17 49 144.34 49 161 49 C160.67 43.72 160.34 38.44 160 33 C160 27.39 160 21.78 160 16 C176.17 16 192.34 16 209 16 C209 21.61 209 27.22 209 33 C203.72 33 198.44 33 193 33 C193 38.28 193 43.56 193 49 C203.23 49 213.46 49 224 49 C224 53.95 224 58.9 224 64 C210.90106656 64.90977932 197.90432922 65.13278743 184.77734375 65.09765625 C182.69413792 65.09578596 180.61093165 65.09436495 178.52772522 65.09336853 C173.10442848 65.08959143 167.68115948 65.07980355 162.25787354 65.06866455 C156.6999143 65.05834574 151.14195048 65.05384871 145.58398438 65.04882812 C134.72264421 65.03817585 123.86132443 65.02115889 113 65 C113 69.95 113 74.9 113 80 C115.28756226 79.99214478 115.28756226 79.99214478 117.62133789 79.98413086 C125.1017139 79.96096432 132.58209531 79.94667815 140.0625 79.9375 C140.75501862 79.93664398 141.44753723 79.93578796 142.16104126 79.93490601 C168.2770348 79.90654331 194.38654011 80.14895312 220.5 80.5 C221.83482359 80.51793673 221.83482359 80.51793673 223.19661331 80.53623581 C234.13118485 80.68380865 245.06558397 80.84087128 256 81 C256 91.56 256 102.12 256 113 C245.77 113 235.54 113 225 113 C225 118.28 225 123.56 225 129 C230.28 129 235.56 129 241 129 C241 134.28 241 139.56 241 145 C236.46095634 145.02291161 231.92211198 145.04283781 227.38305664 145.05493164 C225.83780234 145.0599714 224.29255284 145.0668032 222.74731445 145.07543945 C220.53074971 145.08752076 218.31424782 145.09323173 216.09765625 145.09765625 C215.05545677 145.10539818 215.05545677 145.10539818 213.99220276 145.11329651 C212.3277067 145.11349277 210.66334501 145.06189129 209 145 C208.67 144.67 208.34 144.34 208 144 C208 139.05 208 134.1 208 129 C192.49 129 176.98 129 161 129 C161 123.72 161 118.44 161 113 C174.51791615 111.96329991 187.94711162 111.8829094 201.5 111.9375 C203.69140522 111.94252839 205.88281156 111.94708891 208.07421875 111.95117188 C213.38284088 111.96206364 218.69140762 111.97925334 224 112 C224 107.05 224 102.1 224 97 C192.65 97 161.3 97 129 97 C129 102.28 129 107.56 129 113 C123.72 113 118.44 113 113 113 C113 117.95 113 122.9 113 128 C128.51 128 144.02 128 160 128 C160 138.56 160 149.12 160 160 C155.05 160 150.1 160 145 160 C145 155.05 145 150.1 145 145 C139.39 145 133.78 145 128 145 C128 139.72 128 134.44 128 129 C106.88 129 85.76 129 64 129 C64 123.72 64 118.44 64 113 C69.28 113 74.56 113 80 113 C80 107.39 80 101.78 80 96 C85.28 96 90.56 96 96 96 C96 91.05 96 86.1 96 81 C85.44 81 74.88 81 64 81 C64 85.95 64 90.9 64 96 C48.01458682 97.33211776 32.02704791 97.08752635 16 97 C16 101.95 16 106.9 16 112 C26.56 112 37.12 112 48 112 C48 117.61 48 123.22 48 129 C43.89647143 129.16849612 39.79334657 129.33150218 35.68920898 129.48217773 C34.30172521 129.53458069 32.91434369 129.58978834 31.52709961 129.64819336 C20.8834934 130.09345153 10.70573399 129.62974906 0 129 C0 86.43 0 43.86 0 0 Z " fill="#555555" transform="translate(0,46)"/>
<path d="M0 0 C31.68 0 63.36 0 96 0 C96 4.62 96 9.24 96 14 C90.72 14 85.44 14 80 14 C80 19.28 80 24.56 80 30 C85.61 30 91.22 30 97 30 C97 25.05 97 20.1 97 15 C101.95 15 106.9 15 112 15 C112 20.28 112 25.56 112 31 C117.28 31 122.56 31 128 31 C128 35.95 128 40.9 128 46 C122.72 46 117.44 46 112 46 C112.165 48.495625 112.33 50.99125 112.5 53.5625 C113.00901914 61.72592438 113.07940186 69.82160828 113 78 C118.28 78 123.56 78 129 78 C129 73.05 129 68.1 129 63 C139.23 63 149.46 63 160 63 C160.76981939 73.77747139 161 84.12497556 161 95 C144.83 95 128.66 95 112 95 C112 89.72 112 84.44 112 79 C101.44 79 90.88 79 80 79 C80 83.95 80 88.9 80 94 C74.72 94 69.44 94 64 94 C64 88.72 64 83.44 64 78 C59.05 78 54.1 78 49 78 C49 73.05 49 68.1 49 63 C59.23 63 69.46 63 80 63 C80 57.39 80 51.78 80 46 C53.6 46 27.2 46 0 46 C0 30.82 0 15.64 0 0 Z " fill="#323232" transform="translate(0,0)"/>
<path d="M0 0 C26.4 0 52.8 0 80 0 C80 5.61 80 11.22 80 17 C69.77 17 59.54 17 49 17 C49 21.95 49 26.9 49 32 C53.95 32 58.9 32 64 32 C64 37.28 64 42.56 64 48 C69.28 48 74.56 48 80 48 C80 43.05 80 38.1 80 33 C90.56 33 101.12 33 112 33 C112 43.56 112 54.12 112 65 C75.04 65 38.08 65 0 65 C0 43.55 0 22.1 0 0 Z " fill="#555555" transform="translate(0,46)"/>
<path d="M0 0 C20.79 0 41.58 0 63 0 C63 15.51 63 31.02 63 47 C26.04 47 -10.92 47 -49 47 C-49 41.72 -49 36.44 -49 31 C-53.95 31 -58.9 31 -64 31 C-64 26.05 -64 21.1 -64 16 C-42.88 16 -21.76 16 0 16 C0 10.72 0 5.44 0 0 Z " fill="#565656" transform="translate(193,207)"/>
<path d="M0 0 C4.95 0 9.9 0 15 0 C15 21.12 15 42.24 15 64 C3.16664705 64.02767676 -8.66663068 64.05111695 -20.5 64.0625 C-21.38351765 64.06335602 -22.26703529 64.06421204 -23.1773262 64.06509399 C-49.10161623 64.08724939 -75.0168735 63.94455957 -100.9375 63.5 C-101.63517487 63.48804218 -102.33284973 63.47608437 -103.05166626 63.46376419 C-111.36799555 63.32024742 -119.68407269 63.1651851 -128 63 C-128 58.05 -128 53.1 -128 48 C-73.055 47.505 -73.055 47.505 -17 47 C-17 42.05 -17 37.1 -17 32 C-27.23 32 -37.46 32 -48 32 C-48 26.72 -48 21.44 -48 16 C-32.01458682 14.66788224 -16.02704791 14.91247365 0 15 C0 10.05 0 5.1 0 0 Z " fill="#323232" transform="translate(241,63)"/>
<path d="M0 0 C36.96 0 73.92 0 112 0 C112 10.56 112 21.12 112 32 C101.77 32 91.54 32 81 32 C81 37.28 81 42.56 81 48 C86.28 48 91.56 48 97 48 C97 53.28 97 58.56 97 64 C92.46095634 64.02291161 87.92211198 64.04283781 83.38305664 64.05493164 C81.83780234 64.0599714 80.29255284 64.0668032 78.74731445 64.07543945 C76.53074971 64.08752076 74.31424782 64.09323173 72.09765625 64.09765625 C71.05545677 64.10539818 71.05545677 64.10539818 69.99220276 64.11329651 C68.3277067 64.11349277 66.66334501 64.06189129 65 64 C64.67 63.67 64.34 63.34 64 63 C64 58.05 64 53.1 64 48 C48.49 48 32.98 48 17 48 C17 42.72 17 37.44 17 32 C30.51791615 30.96329991 43.94711162 30.8829094 57.5 30.9375 C59.69140522 30.94252839 61.88281156 30.94708891 64.07421875 30.95117188 C69.38284088 30.96206364 74.69140762 30.97925334 80 31 C80 26.05 80 21.1 80 16 C53.6 16 27.2 16 0 16 C0 10.72 0 5.44 0 0 Z " fill="#616161" transform="translate(144,127)"/>
<path d="M0 0 C31.35 0 62.7 0 95 0 C95 4.95 95 9.9 95 15 C88.59949547 15.14469635 82.19894351 15.28700332 75.79833984 15.42724609 C73.62807843 15.47511715 71.45783046 15.52360287 69.28759766 15.57275391 C56.85503931 15.85387775 44.43590797 16.06007685 32 16 C32 21.28 32 26.56 32 32 C47.51 32 63.02 32 79 32 C79.495 39.92 79.495 39.92 80 48 C64.16 48 48.32 48 32 48 C32 53.28 32 58.56 32 64 C21.11 64 10.22 64 -1 64 C-1 58.72 -1 53.44 -1 48 C4.61 48 10.22 48 16 48 C16 52.95 16 57.9 16 63 C20.95 63 25.9 63 31 63 C31 52.44 31 41.88 31 31 C15.49 31 -0.02 31 -16 31 C-16 26.05 -16 21.1 -16 16 C-10.72 16 -5.44 16 0 16 C0 10.72 0 5.44 0 0 Z " fill="#636363" transform="translate(129,143)"/>
<path d="M0 0 C21.45 0 42.9 0 65 0 C65 4.62 65 9.24 65 14 C70.28 14 75.56 14 81 14 C81 19.61 81 25.22 81 31 C70.11 31 59.22 31 48 31 C48 36.28 48 41.56 48 47 C43.05 47 38.1 47 33 47 C33.0395679 51.89153471 33.0395679 51.89153471 33.09008789 56.78295898 C33.09724913 58.52221717 33.05024702 60.26145304 33 62 C32 63 32 63 28.40234375 63.09765625 C26.91402745 63.09191272 25.42573704 63.07889891 23.9375 63.0625 C21.318125 63.041875 18.69875 63.02125 16 63 C16 57.39 16 51.78 16 46 C21.28 46 26.56 46 32 46 C32 41.05 32 36.1 32 31 C26.72 31 21.44 31 16 31 C16 25.72 16 20.44 16 15 C11.05 15 6.1 15 1 15 C1 19.95 1 24.9 1 30 C-4.61 30 -10.22 30 -16 30 C-16 24.72 -16 19.44 -16 14 C-10.72 14 -5.44 14 0 14 C0 9.38 0 4.76 0 0 Z " fill="#717171" transform="translate(96,0)"/>
<path d="M0 0 C31.68 0 63.36 0 96 0 C96 4.62 96 9.24 96 14 C90.72 14 85.44 14 80 14 C80 19.28 80 24.56 80 30 C85.61 30 91.22 30 97 30 C97 25.05 97 20.1 97 15 C101.95 15 106.9 15 112 15 C112 20.28 112 25.56 112 31 C80.32 31 48.64 31 16 31 C16 25.72 16 20.44 16 15 C10.72 15 5.44 15 0 15 C0 10.05 0 5.1 0 0 Z " fill="#5F5F5F" transform="translate(0,0)"/>
<path d="M0 0 C5.28 0 10.56 0 16 0 C16 5.28 16 10.56 16 16 C52.96 16 89.92 16 128 16 C128 20.95 128 25.9 128 31 C117.44 31 106.88 31 96 31 C96 36.28 96 41.56 96 47 C90.72 47 85.44 47 80 47 C80 41.72 80 36.44 80 31 C53.6 31 27.2 31 0 31 C0 20.77 0 10.54 0 0 Z " fill="#323232" transform="translate(0,15)"/>
<path d="M0 0 C16.17 0 32.34 0 49 0 C49 5.61 49 11.22 49 17 C43.72 17 38.44 17 33 17 C33 22.28 33 27.56 33 33 C43.23 33 53.46 33 64 33 C64 37.95 64 42.9 64 48 C50.29064272 48.97213198 36.67736474 49.11936053 22.9375 49.0625 C20.79882918 49.05747012 18.66015721 49.05290987 16.52148438 49.04882812 C11.34762697 49.03795153 6.17382675 49.02077072 1 49 C0.85389796 44.75410383 0.71172345 40.50809708 0.57275391 36.26196289 C0.52525696 34.82605688 0.47679784 33.39018228 0.42724609 31.9543457 C0.35502895 29.85636407 0.28661476 27.75828274 0.21875 25.66015625 C0.17685547 24.40855713 0.13496094 23.15695801 0.09179688 21.86743164 C-0.04564883 14.57951949 0 7.28920811 0 0 Z " fill="#565656" transform="translate(160,62)"/>
<path d="M0 0 C10.23 0 20.46 0 31 0 C31 5.28 31 10.56 31 16 C41.89 16 52.78 16 64 16 C64 20.95 64 25.9 64 31 C74.23 31 84.46 31 95 31 C95 26.05 95 21.1 95 16 C95.33 16 95.66 16 96 16 C96 21.28 96 26.56 96 32 C74.88 32 53.76 32 32 32 C32 36.95 32 41.9 32 47 C36.95 47 41.9 47 47 47 C47 52.28 47 57.56 47 63 C36.44 63 25.88 63 15 63 C15 58.05 15 53.1 15 48 C9.72 48 4.44 48 -1 48 C-1 42.72 -1 37.44 -1 32 C4.61 32 10.22 32 16 32 C15.67 26.72 15.34 21.44 15 16 C10.05 15.67 5.1 15.34 0 15 C0 10.05 0 5.1 0 0 Z " fill="#323232" transform="translate(97,191)"/>
<path d="M0 0 C31.35 0 62.7 0 95 0 C95 9.9 95 19.8 95 30 C89.72 30 84.44 30 79 30 C79 25.05 79 20.1 79 15 C74.05 15 69.1 15 64 15 C64 19.95 64 24.9 64 30 C53.44 30 42.88 30 32 30 C32 24.72 32 19.44 32 14 C21.44 14 10.88 14 0 14 C0 9.38 0 4.76 0 0 Z " fill="#323232" transform="translate(161,0)"/>
<path d="M0 0 C1.38120529 0.0001133 1.38120529 0.0001133 2.79031372 0.00022888 C4.28412064 0.00797081 4.28412064 0.00797081 5.80810547 0.01586914 C7.33538773 0.01799156 7.33538773 0.01799156 8.89352417 0.02015686 C12.15414332 0.02576639 15.41469448 0.03832051 18.67529297 0.05102539 C20.88232323 0.05603916 23.08935456 0.06060228 25.29638672 0.06469727 C30.71438178 0.07573892 36.13232583 0.09300996 41.55029297 0.11352539 C41.55029297 5.72352539 41.55029297 11.33352539 41.55029297 17.11352539 C30.99029297 17.11352539 20.43029297 17.11352539 9.55029297 17.11352539 C9.55029297 22.06352539 9.55029297 27.01352539 9.55029297 32.11352539 C20.11029297 32.11352539 30.67029297 32.11352539 41.55029297 32.11352539 C41.55029297 37.72352539 41.55029297 43.33352539 41.55029297 49.11352539 C37.4467644 49.28202151 33.34363954 49.44502757 29.23950195 49.59570312 C27.85201818 49.64810608 26.46463666 49.70331373 25.07739258 49.76171875 C14.43378637 50.20697692 4.25602696 49.74327445 -6.44970703 49.11352539 C-6.44970703 33.27352539 -6.44970703 17.43352539 -6.44970703 1.11352539 C-4.07579867 -0.07342879 -2.64725752 -0.00723294 0 0 Z " fill="#636363" transform="translate(6.44970703125,125.886474609375)"/>
<path d="M0 0 C21.12 0 42.24 0 64 0 C64 5.28 64 10.56 64 16 C58.72 16 53.44 16 48 16 C48 21.28 48 26.56 48 32 C32.16 32 16.32 32 0 32 C0 21.44 0 10.88 0 0 Z " fill="#636363" transform="translate(0,207)"/>
<path d="M0 0 C10.56 0 21.12 0 32 0 C32 4.95 32 9.9 32 15 C26.72 15 21.44 15 16 15 C16 20.61 16 26.22 16 32 C10.72 32 5.44 32 0 32 C0 37.28 0 42.56 0 48 C-5.28 48 -10.56 48 -16 48 C-16 42.39 -16 36.78 -16 31 C-26.56 31 -37.12 31 -48 31 C-48 26.05 -48 21.1 -48 16 C-43.73573666 15.85509785 -39.47147675 15.71193541 -35.20703125 15.57275391 C-33.76429151 15.52519457 -32.32158125 15.47673011 -30.87890625 15.42724609 C-20.5793777 15.07481809 -10.306032 14.95357643 0 15 C0 10.05 0 5.1 0 0 Z " fill="#333333" transform="translate(64,127)"/>
<path d="M0 0 C4.95 0 9.9 0 15 0 C15 15.84 15 31.68 15 48 C4.77 48 -5.46 48 -16 48 C-16 42.39 -16 36.78 -16 31 C-18.31 31.165 -20.62 31.33 -23 31.5 C-31.34863337 32.05756446 -39.63375989 32.07469857 -48 32 C-48 26.72 -48 21.44 -48 16 C-32.01458682 14.66788224 -16.02704791 14.91247365 0 15 C0 10.05 0 5.1 0 0 Z " fill="#333333" transform="translate(241,63)"/>
<path d="M0 0 C10.56 0 21.12 0 32 0 C32 10.23 32 20.46 32 31 C5.6 31 -20.8 31 -48 31 C-48 26.05 -48 21.1 -48 16 C-32.16 16 -16.32 16 0 16 C0 10.72 0 5.44 0 0 Z " fill="#2F2F2F" transform="translate(48,223)"/>
<path d="M0 0 C15.84 0 31.68 0 48 0 C48 4.95 48 9.9 48 15 C50.31 14.979375 52.62 14.95875 55 14.9375 C63.37287961 14.90162123 71.64898705 15.40349908 80 16 C80 21.28 80 26.56 80 32 C75.46095634 32.02291161 70.92211198 32.04283781 66.38305664 32.05493164 C64.83780234 32.0599714 63.29255284 32.0668032 61.74731445 32.07543945 C59.53074971 32.08752076 57.31424782 32.09323173 55.09765625 32.09765625 C54.05545677 32.10539818 54.05545677 32.10539818 52.99220276 32.11329651 C51.3277067 32.11349277 49.66334501 32.06189129 48 32 C47.67 31.67 47.34 31.34 47 31 C47 26.05 47 21.1 47 16 C31.49 16 15.98 16 0 16 C0 10.72 0 5.44 0 0 Z " fill="#979797" transform="translate(161,159)"/>
<path d="M0 0 C5.28 0 10.56 0 16 0 C16 5.28 16 10.56 16 16 C31.84 16 47.68 16 64 16 C64 21.28 64 26.56 64 32 C42.88 32 21.76 32 0 32 C0 21.44 0 10.88 0 0 Z " fill="#323232" transform="translate(0,175)"/>
<path d="M0 0 C5.28 0 10.56 0 16 0 C16 5.28 16 10.56 16 16 C26.56 16 37.12 16 48 16 C48 21.28 48 26.56 48 32 C26.88 32 5.76 32 -16 32 C-16 27.05 -16 22.1 -16 17 C-10.72 17 -5.44 17 0 17 C0 11.39 0 5.78 0 0 Z " fill="#575757" transform="translate(177,14)"/>
<path d="M0 0 C10.56 0 21.12 0 32 0 C32 5.28 32 10.56 32 16 C26.72 16 21.44 16 16 16 C16 20.95 16 25.9 16 31 C0.16 31 -15.68 31 -32 31 C-32 26.05 -32 21.1 -32 16 C-21.44 16 -10.88 16 0 16 C0 10.72 0 5.44 0 0 Z " fill="#333333" transform="translate(209,223)"/>
<path d="M0 0 C20.79 0 41.58 0 63 0 C63 5.28 63 10.56 63 16 C58.05 16 53.1 16 48 16 C48 20.95 48 25.9 48 31 C42.72 31 37.44 31 32 31 C32 25.72 32 20.44 32 15 C21.44 15 10.88 15 0 15 C0 10.05 0 5.1 0 0 Z " fill="#979797" transform="translate(193,127)"/>
<path d="M0 0 C10.23 0 20.46 0 31 0 C31 10.23 31 20.46 31 31 C15.49 31 -0.02 31 -16 31 C-16 26.05 -16 21.1 -16 16 C-11.05 15.67 -6.1 15.34 -1 15 C-0.67 10.05 -0.34 5.1 0 0 Z " fill="#323232" transform="translate(129,63)"/>
<path d="M0 0 C10.23 0 20.46 0 31 0 C31 15.51 31 31.02 31 47 C20.77 47 10.54 47 0 47 C0 42.05 0 37.1 0 32 C5.28 32 10.56 32 16 32 C16 26.72 16 21.44 16 16 C10.72 16 5.44 16 0 16 C0 10.72 0 5.44 0 0 Z " fill="#575757" transform="translate(225,207)"/>
<path d="M0 0 C26.07 0 52.14 0 79 0 C79 4.95 79 9.9 79 15 C52.93 15 26.86 15 0 15 C0 10.05 0 5.1 0 0 Z " fill="#323232" transform="translate(161,47)"/>
<path d="M0 0 C26.4 0 52.8 0 80 0 C80 4.62 80 9.24 80 14 C53.6 14 27.2 14 0 14 C0 9.38 0 4.76 0 0 Z " fill="#323232" transform="translate(16,0)"/>
<path d="M0 0 C5.28 0 10.56 0 16 0 C16 5.61 16 11.22 16 17 C26.23 17 36.46 17 47 17 C47 22.28 47 27.56 47 33 C26.21 33 5.42 33 -16 33 C-16 27.72 -16 22.44 -16 17 C-5.62210898 16.12607234 4.59386859 15.886616 15 16 C15 11.05 15 6.1 15 1 C10.05 1 5.1 1 0 1 C0 0.67 0 0.34 0 0 Z " fill="#595959" transform="translate(209,94)"/>
<path d="M0 0 C21.0285609 -0.12508728 41.98670195 0.18733101 63 1 C63 5.95 63 10.9 63 16 C49.29064272 16.97213198 35.67736474 17.11936053 21.9375 17.0625 C19.79882918 17.05747012 17.66015721 17.05290987 15.52148438 17.04882812 C10.34762697 17.03795153 5.17382675 17.02077072 0 17 C0 11.39 0 5.78 0 0 Z " fill="#676767" transform="translate(161,94)"/>
<path d="M0 0 C15.84 0 31.68 0 48 0 C48 4.95 48 9.9 48 15 C42.72 15 37.44 15 32 15 C32 20.61 32 26.22 32 32 C26.72 32 21.44 32 16 32 C16 26.39 16 20.78 16 15 C10.72 15 5.44 15 0 15 C0 10.05 0 5.1 0 0 Z " fill="#636363" transform="translate(16,47)"/>
<path d="M0 0 C15.84 0 31.68 0 48 0 C48 9.9 48 19.8 48 30 C42.72 30 37.44 30 32 30 C32 25.05 32 20.1 32 15 C27.05 15 22.1 15 17 15 C17 19.95 17 24.9 17 30 C16.67 30 16.34 30 16 30 C16 25.05 16 20.1 16 15 C10.72 15 5.44 15 0 15 C0 10.05 0 5.1 0 0 Z " fill="#373737" transform="translate(208,0)"/>
<path d="M0 0 C4.95 0 9.9 0 15 0 C15 4.95 15 9.9 15 15 C20.28 15 25.56 15 31 15 C31 25.56 31 36.12 31 47 C26.05 47 21.1 47 16 47 C16 41.72 16 36.44 16 31 C10.72 31 5.44 31 0 31 C0 20.77 0 10.54 0 0 Z " fill="#565656" transform="translate(225,15)"/>
<path d="M0 0 C4.95 0 9.9 0 15 0 C15 5.28 15 10.56 15 16 C20.28 16 25.56 16 31 16 C31 20.95 31 25.9 31 31 C15.49 31 -0.02 31 -16 31 C-16 26.05 -16 21.1 -16 16 C-10.72 16 -5.44 16 0 16 C0 10.72 0 5.44 0 0 Z " fill="#212121" transform="translate(129,143)"/>
<path d="M0 0 C10.56 0 21.12 0 32 0 C32 5.28 32 10.56 32 16 C26.72 16 21.44 16 16 16 C16 21.28 16 26.56 16 32 C10.72 32 5.44 32 0 32 C0 21.44 0 10.88 0 0 Z " fill="#565656" transform="translate(193,207)"/>
<path d="M0 0 C15.84 0 31.68 0 48 0 C48 5.28 48 10.56 48 16 C32.16 16 16.32 16 0 16 C0 10.72 0 5.44 0 0 Z " fill="#646464" transform="translate(16,207)"/>
<path d="M0 0 C5.28 0 10.56 0 16 0 C16 4.95 16 9.9 16 15 C20.95 15 25.9 15 31 15 C31 20.61 31 26.22 31 32 C20.77 32 10.54 32 0 32 C0 21.44 0 10.88 0 0 Z " fill="#333333" transform="translate(225,79)"/>
<path d="M0 0 C10.56 0 21.12 0 32 0 C32 5.28 32 10.56 32 16 C26.72 16 21.44 16 16 16 C16 20.95 16 25.9 16 31 C10.72 31 5.44 31 0 31 C0 20.77 0 10.54 0 0 Z " fill="#222222" transform="translate(0,63)"/>
<path d="M0 0 C10.56 0 21.12 0 32 0 C32 10.23 32 20.46 32 31 C27.05 31 22.1 31 17 31 C17 26.05 17 21.1 17 16 C11.39 16 5.78 16 0 16 C0 10.72 0 5.44 0 0 Z " fill="#969696" transform="translate(128,175)"/>
<path d="M0 0 C10.23 0 20.46 0 31 0 C31 10.56 31 21.12 31 32 C26.05 32 21.1 32 16 32 C16 26.72 16 21.44 16 16 C10.72 16 5.44 16 0 16 C0 10.72 0 5.44 0 0 Z " fill="#333333" transform="translate(225,159)"/>
<path d="M0 0 C15.84 0 31.68 0 48 0 C48 4.95 48 9.9 48 15 C41.48552033 15.14269162 34.97103459 15.28510118 28.45654297 15.42724609 C26.23909334 15.47567054 24.02164542 15.52417289 21.80419922 15.57275391 C18.62207472 15.64245623 15.43994428 15.71188096 12.2578125 15.78125 C11.26194122 15.80312378 10.26606995 15.82499756 9.24002075 15.84753418 C7.85881546 15.87756531 7.85881546 15.87756531 6.44970703 15.90820312 C5.6369632 15.92596802 4.82421936 15.94373291 3.98684692 15.96203613 C2.65808024 15.98742567 1.32900922 16 0 16 C0 10.72 0 5.44 0 0 Z " fill="#565656" transform="translate(0,111)"/>
<path d="M0 0 C15.84 0 31.68 0 48 0 C48 4.95 48 9.9 48 15 C32.16 15 16.32 15 0 15 C0 10.05 0 5.1 0 0 Z " fill="#636363" transform="translate(16,15)"/>
<path d="M0 0 C15.51 0 31.02 0 47 0 C47 4.95 47 9.9 47 15 C31.49 15 15.98 15 0 15 C0 10.05 0 5.1 0 0 Z " fill="#323232" transform="translate(177,143)"/>
<path d="M0 0 C5.28 0 10.56 0 16 0 C16 4.95 16 9.9 16 15 C20.95 15 25.9 15 31 15 C31 19.95 31 24.9 31 30 C20.77 30 10.54 30 0 30 C0 20.1 0 10.2 0 0 Z " fill="#979797" transform="translate(145,0)"/>
<path d="M0 0 C10.23 0 20.46 0 31 0 C31 9.9 31 19.8 31 30 C25.72 30 20.44 30 15 30 C15 24.72 15 19.44 15 14 C10.05 14 5.1 14 0 14 C0 9.38 0 4.76 0 0 Z " fill="#575757" transform="translate(113,0)"/>
<path d="M0 0 C0.33 0 0.66 0 1 0 C1 4.95 1 9.9 1 15 C3.31 14.979375 5.62 14.95875 8 14.9375 C16.37287961 14.90162123 24.64898705 15.40349908 33 16 C33 21.28 33 26.56 33 32 C28.46095634 32.02291161 23.92211198 32.04283781 19.38305664 32.05493164 C17.83780234 32.0599714 16.29255284 32.0668032 14.74731445 32.07543945 C12.53074971 32.08752076 10.31424782 32.09323173 8.09765625 32.09765625 C7.05545677 32.10539818 7.05545677 32.10539818 5.99220276 32.11329651 C4.3277067 32.11349277 2.66334501 32.06189129 1 32 C0.67 31.67 0.34 31.34 0 31 C0 26.05 0 21.1 0 16 C-15.51 16 -31.02 16 -47 16 C-47 15.67 -47 15.34 -47 15 C-31.49 15 -15.98 15 0 15 C0 10.05 0 5.1 0 0 Z " fill="#949494" transform="translate(208,159)"/>
<path d="M0 0 C5.28 0 10.56 0 16 0 C16 10.23 16 20.46 16 31 C31.84 31 47.68 31 64 31 C64 31.33 64 31.66 64 32 C42.88 32 21.76 32 0 32 C0 21.44 0 10.88 0 0 Z " fill="#555555" transform="translate(0,175)"/>
<path d="M0 0 C10.89 0 21.78 0 33 0 C33 5.28 33 10.56 33 16 C22.11 16 11.22 16 0 16 C0 10.72 0 5.44 0 0 Z " fill="#959595" transform="translate(160,223)"/>
<path d="M0 0 C10.89 0 21.78 0 33 0 C33 5.28 33 10.56 33 16 C22.11 16 11.22 16 0 16 C0 10.72 0 5.44 0 0 Z " fill="#959595" transform="translate(144,127)"/>
<path d="M0 0 C10.23 0 20.46 0 31 0 C31 5.28 31 10.56 31 16 C10.21 16 -10.58 16 -32 16 C-32 15.67 -32 15.34 -32 15 C-21.44 15 -10.88 15 0 15 C0 10.05 0 5.1 0 0 Z " fill="#656565" transform="translate(225,111)"/>
<path d="M0 0 C5.28 0 10.56 0 16 0 C16.95243078 10.90004115 16.81212084 21.08148648 16 32 C10.72 32 5.44 32 0 32 C0 21.44 0 10.88 0 0 Z " fill="#626262" transform="translate(64,191)"/>
<path d="M0 0 C10.56 0 21.12 0 32 0 C32 5.28 32 10.56 32 16 C21.44 16 10.88 16 0 16 C0 10.72 0 5.44 0 0 Z " fill="#585858" transform="translate(80,79)"/>
<path d="M0 0 C1.34888732 0.00015905 2.69778075 0.00584927 4.04663086 0.01586914 C5.10991859 0.01799156 5.10991859 0.01799156 6.19468689 0.02015686 C8.46699173 0.02577096 10.73919936 0.03832576 13.01147461 0.05102539 C14.54858257 0.05603858 16.08569206 0.0606018 17.62280273 0.06469727 C21.39826128 0.07489569 25.17350865 0.09446808 28.94897461 0.11352539 C28.94897461 5.39352539 28.94897461 10.67352539 28.94897461 16.11352539 C17.8925826 16.21313253 6.97751164 15.87787944 -4.05102539 15.11352539 C-4.07787951 12.80108747 -4.0973538 10.48856269 -4.11352539 8.17602539 C-4.12512695 6.88825195 -4.13672852 5.60047852 -4.14868164 4.27368164 C-4.02123864 0.14962599 -4.02123864 0.14962599 0 0 Z " fill="#333333" transform="translate(164.051025390625,110.886474609375)"/>
<path d="M0 0 C10.23 0 20.46 0 31 0 C31 5.28 31 10.56 31 16 C20.77 16 10.54 16 0 16 C0 10.72 0 5.44 0 0 Z " fill="#969696" transform="translate(225,207)"/>
<path d="M0 0 C0.33 0 0.66 0 1 0 C1 5.28 1 10.56 1 16 C5.95 16 10.9 16 16 16 C16 20.95 16 25.9 16 31 C5.77 31 -4.46 31 -15 31 C-15 26.05 -15 21.1 -15 16 C-10.05 16 -5.1 16 0 16 C0 10.72 0 5.44 0 0 Z " fill="#575757" transform="translate(144,31)"/>
<path d="M0 0 C10.56 0 21.12 0 32 0 C32 4.95 32 9.9 32 15 C21.44 15 10.88 15 0 15 C0 10.05 0 5.1 0 0 Z " fill="#969696" transform="translate(80,239)"/>
<path d="M0 0 C10.56 0 21.12 0 32 0 C32 4.95 32 9.9 32 15 C21.44 15 10.88 15 0 15 C0 10.05 0 5.1 0 0 Z " fill="#323232" transform="translate(64,175)"/>
<path d="M0 0 C10.56 0 21.12 0 32 0 C32 4.95 32 9.9 32 15 C21.44 15 10.88 15 0 15 C0 10.05 0 5.1 0 0 Z " fill="#979797" transform="translate(80,159)"/>
<path d="M0 0 C10.56 0 21.12 0 32 0 C32 4.95 32 9.9 32 15 C21.44 15 10.88 15 0 15 C0 10.05 0 5.1 0 0 Z " fill="#979797" transform="translate(16,127)"/>
<path d="M0 0 C10.56 0 21.12 0 32 0 C32 4.95 32 9.9 32 15 C21.44 15 10.88 15 0 15 C0 10.05 0 5.1 0 0 Z " fill="#979797" transform="translate(80,95)"/>
<path d="M0 0 C10.56 0 21.12 0 32 0 C32 4.95 32 9.9 32 15 C21.44 15 10.88 15 0 15 C0 10.05 0 5.1 0 0 Z " fill="#979797" transform="translate(0,95)"/>
<path d="M0 0 C10.56 0 21.12 0 32 0 C32 4.95 32 9.9 32 15 C21.44 15 10.88 15 0 15 C0 10.05 0 5.1 0 0 Z " fill="#979797" transform="translate(177,63)"/>
<path d="M0 0 C10.56 0 21.12 0 32 0 C32 4.95 32 9.9 32 15 C21.44 15 10.88 15 0 15 C0 10.05 0 5.1 0 0 Z " fill="#636363" transform="translate(209,63)"/>
<path d="M0 0 C10.40798187 -0.10007675 20.61651723 0.26488618 31 1 C31 5.95 31 10.9 31 16 C20.77 16 10.54 16 0 16 C0 10.72 0 5.44 0 0 Z " fill="#222222" transform="translate(193,14)"/>
<path d="M0 0 C10.23 0 20.46 0 31 0 C31 4.95 31 9.9 31 15 C20.77 15 10.54 15 0 15 C0 10.05 0 5.1 0 0 Z " fill="#979797" transform="translate(161,95)"/>
<path d="M0 0 C4.95 0 9.9 0 15 0 C15 10.23 15 20.46 15 31 C10.05 31 5.1 31 0 31 C0 20.77 0 10.54 0 0 Z " fill="#575757" transform="translate(241,31)"/>
<path d="M0 0 C16.17 0 32.34 0 49 0 C49 0.33 49 0.66 49 1 C38.44 1 27.88 1 17 1 C17 5.95 17 10.9 17 16 C27.56 16 38.12 16 49 16 C49 16.33 49 16.66 49 17 C32.83 17 16.66 17 0 17 C0 11.39 0 5.78 0 0 Z " fill="#636363" transform="translate(160,62)"/>
<path d="M0 0 C26.4 0 52.8 0 80 0 C80 0.33 80 0.66 80 1 C58.88 1 37.76 1 16 1 C16 5.95 16 10.9 16 16 C21.28 16 26.56 16 32 16 C32 16.33 32 16.66 32 17 C21.44 17 10.88 17 0 17 C0 11.39 0 5.78 0 0 Z " fill="#545454" transform="translate(0,46)"/>
<path d="M0 0 C15.84 0 31.68 0 48 0 C48 5.61 48 11.22 48 17 C32.16 17 16.32 17 0 17 C0 16.67 0 16.34 0 16 C10.56 16 21.12 16 32 16 C32 11.05 32 6.1 32 1 C21.44 1 10.88 1 0 1 C0 0.67 0 0.34 0 0 Z " fill="#656565" transform="translate(0,94)"/>
<path d="M0 0 C5.28 0 10.56 0 16 0 C16 5.28 16 10.56 16 16 C0.16 16 -15.68 16 -32 16 C-32 15.67 -32 15.34 -32 15 C-21.44 15 -10.88 15 0 15 C0 10.05 0 5.1 0 0 Z " fill="#565656" transform="translate(32,223)"/>
<path d="M0 0 C5.28 0 10.56 0 16 0 C16 4.95 16 9.9 16 15 C26.56 15 37.12 15 48 15 C48 15.33 48 15.66 48 16 C32.16 16 16.32 16 0 16 C0 10.72 0 5.44 0 0 Z " fill="#646464" transform="translate(64,159)"/>
<path d="M0 0 C5.28 0 10.56 0 16 0 C16 4.95 16 9.9 16 15 C26.56 15 37.12 15 48 15 C48 15.33 48 15.66 48 16 C32.16 16 16.32 16 0 16 C0 10.72 0 5.44 0 0 Z " fill="#555555" transform="translate(0,143)"/>
<path d="M0 0 C5.28 0 10.56 0 16 0 C16 4.62 16 9.24 16 14 C31.84 14.495 31.84 14.495 48 15 C48 15.33 48 15.66 48 16 C32.16 16 16.32 16 0 16 C0 10.72 0 5.44 0 0 Z " fill="#555555" transform="translate(161,175)"/>
<path d="M0 0 C5.28 0 10.56 0 16 0 C16 4.95 16 9.9 16 15 C26.56 15 37.12 15 48 15 C48 15.33 48 15.66 48 16 C41.48552273 16.02529705 34.97105807 16.04284444 28.45654297 16.05493164 C26.23909024 16.05996909 24.02164084 16.06679922 21.80419922 16.07543945 C18.62206195 16.08753072 15.43996849 16.0932341 12.2578125 16.09765625 C11.26194122 16.10281754 10.26606995 16.10797882 9.24002075 16.11329651 C7.85881546 16.11340981 7.85881546 16.11340981 6.44970703 16.11352539 C5.6369632 16.115746 4.82421936 16.11796661 3.98684692 16.12025452 C2 16 2 16 0 15 C0 10.05 0 5.1 0 0 Z " fill="#656565" transform="translate(64,95)"/>
<path d="M0 0 C5.28 0 10.56 0 16 0 C16 5.61 16 11.22 16 17 C10.72 17 5.44 17 0 17 C0 11.39 0 5.78 0 0 Z " fill="#939393" transform="translate(32,62)"/>
<path d="M0 0 C5.28 0 10.56 0 16 0 C16 5.61 16 11.22 16 17 C10.72 17 5.44 17 0 17 C0 11.39 0 5.78 0 0 Z " fill="#545454" transform="translate(96,46)"/>
<path d="M0 0 C5.28 0 10.56 0 16 0 C16 5.28 16 10.56 16 16 C10.72 16 5.44 16 0 16 C0 10.72 0 5.44 0 0 Z " fill="#575757" transform="translate(80,223)"/>
<path d="M0 0 C5.28 0 10.56 0 16 0 C16 5.28 16 10.56 16 16 C10.72 16 5.44 16 0 16 C0 10.72 0 5.44 0 0 Z " fill="#969696" transform="translate(16,207)"/>
<path d="M0 0 C5.28 0 10.56 0 16 0 C16 5.28 16 10.56 16 16 C10.72 16 5.44 16 0 16 C0 10.72 0 5.44 0 0 Z " fill="#222222" transform="translate(80,207)"/>
<path d="M0 0 C4.95 0 9.9 0 15 0 C15 5.28 15 10.56 15 16 C4.77 16 -5.46 16 -16 16 C-16 15.67 -16 15.34 -16 15 C-10.72 15 -5.44 15 0 15 C0 10.05 0 5.1 0 0 Z " fill="#575757" transform="translate(241,191)"/>
<path d="M0 0 C5.28 0 10.56 0 16 0 C16 5.28 16 10.56 16 16 C10.72 16 5.44 16 0 16 C0 10.72 0 5.44 0 0 Z " fill="#222222" transform="translate(0,175)"/>
<path d="M0 0 C5.28 0 10.56 0 16 0 C16 5.28 16 10.56 16 16 C10.72 16 5.44 16 0 16 C0 10.72 0 5.44 0 0 Z " fill="#969696" transform="translate(32,159)"/>
<path d="M0 0 C5.28 0 10.56 0 16 0 C16 5.28 16 10.56 16 16 C10.72 16 5.44 16 0 16 C0 10.72 0 5.44 0 0 Z " fill="#343434" transform="translate(48,159)"/>
<path d="M0 0 C5.28 0 10.56 0 16 0 C16 5.28 16 10.56 16 16 C10.72 16 5.44 16 0 16 C0 10.72 0 5.44 0 0 Z " fill="#222222" transform="translate(48,143)"/>
<path d="M0 0 C5.28 0 10.56 0 16 0 C16 5.28 16 10.56 16 16 C10.72 16 5.44 16 0 16 C0 10.72 0 5.44 0 0 Z " fill="#333333" transform="translate(16,63)"/>
<path d="M0 0 C5.61 0 11.22 0 17 0 C17 4.95 17 9.9 17 15 C11.39 15 5.78 15 0 15 C0 10.05 0 5.1 0 0 Z " fill="#646464" transform="translate(144,95)"/>
<path d="M0 0 C5.28 0 10.56 0 16 0 C16 5.28 16 10.56 16 16 C11.05 16 6.1 16 1 16 C-0.7213061 10.83608171 -0.05353552 5.40708764 0 0 Z " fill="#626262" transform="translate(144,223)"/>
<path d="M0 0 C5.61 0 11.22 0 17 0 C17 4.95 17 9.9 17 15 C11.72 15 6.44 15 1 15 C-0.63356321 10.09931037 -0.05529694 5.14261524 0 0 Z " fill="#555555" transform="translate(160,143)"/>
<path d="M0 0 C5.28 0 10.56 0 16 0 C16 4.95 16 9.9 16 15 C11.53794887 17.23102556 4.78092876 16.04346299 0 16 C0 10.72 0 5.44 0 0 Z " fill="#212121" transform="translate(225,79)"/>
<path d="M0 0 C4.95 0 9.9 0 15 0 C15 5.28 15 10.56 15 16 C9.72 16 4.44 16 -1 16 C-0.67 10.72 -0.34 5.44 0 0 Z " fill="#565656" transform="translate(65,207)"/>
<path d="M0 0 C5.61 0 11.22 0 17 0 C16.67 4.95 16.34 9.9 16 15 C10.72 15 5.44 15 0 15 C0 10.05 0 5.1 0 0 Z " fill="#212121" transform="translate(144,111)"/>
<path d="M0 0 C5.61 0 11.22 0 17 0 C16.67 4.95 16.34 9.9 16 15 C10.72 15 5.44 15 0 15 C0 10.05 0 5.1 0 0 Z " fill="#646464" transform="translate(112,95)"/>
<path d="M0 0 C5.61 0 11.22 0 17 0 C16.67 4.95 16.34 9.9 16 15 C10.72 15 5.44 15 0 15 C0 10.05 0 5.1 0 0 Z " fill="#212121" transform="translate(64,31)"/>
<path d="M0 0 C5.28 0 10.56 0 16 0 C16 4.95 16 9.9 16 15 C10.72 15 5.44 15 0 15 C0 10.05 0 5.1 0 0 Z " fill="#212121" transform="translate(177,239)"/>
<path d="M0 0 C5.28 0 10.56 0 16 0 C16 4.95 16 9.9 16 15 C10.72 15 5.44 15 0 15 C0 10.05 0 5.1 0 0 Z " fill="#616161" transform="translate(161,239)"/>
<path d="M0 0 C5.28 0 10.56 0 16 0 C16 4.95 16 9.9 16 15 C10.72 15 5.44 15 0 15 C0 10.05 0 5.1 0 0 Z " fill="#646464" transform="translate(112,239)"/>
<path d="M0 0 C5.28 0 10.56 0 16 0 C16 4.95 16 9.9 16 15 C10.72 15 5.44 15 0 15 C0 10.05 0 5.1 0 0 Z " fill="#212121" transform="translate(64,239)"/>
<path d="M0 0 C5.28 0 10.56 0 16 0 C16 4.95 16 9.9 16 15 C10.72 15 5.44 15 0 15 C0 10.05 0 5.1 0 0 Z " fill="#323232" transform="translate(0,239)"/>
<path d="M0 0 C5.28 0 10.56 0 16 0 C16 4.95 16 9.9 16 15 C10.72 15 5.44 15 0 15 C0 10.05 0 5.1 0 0 Z " fill="#979797" transform="translate(48,207)"/>
<path d="M0 0 C5.28 0 10.56 0 16 0 C16 4.95 16 9.9 16 15 C10.72 15 5.44 15 0 15 C0 10.05 0 5.1 0 0 Z " fill="#646464" transform="translate(209,207)"/>
<path d="M0 0 C5.28 0 10.56 0 16 0 C16 4.95 16 9.9 16 15 C10.72 15 5.44 15 0 15 C0 10.05 0 5.1 0 0 Z " fill="#212121" transform="translate(161,207)"/>
<path d="M0 0 C4.95 0 9.9 0 15 0 C15 5.28 15 10.56 15 16 C10.05 16 5.1 16 0 16 C0 10.72 0 5.44 0 0 Z " fill="#222222" transform="translate(241,175)"/>
<path d="M0 0 C5.28 0 10.56 0 16 0 C16 4.95 16 9.9 16 15 C10.72 15 5.44 15 0 15 C0 10.05 0 5.1 0 0 Z " fill="#636363" transform="translate(112,175)"/>
<path d="M0 0 C4.95 0 9.9 0 15 0 C15 5.28 15 10.56 15 16 C10.05 16 5.1 16 0 16 C0 10.72 0 5.44 0 0 Z " fill="#323232" transform="translate(129,143)"/>
<path d="M0 0 C5.28 0 10.56 0 16 0 C16 4.95 16 9.9 16 15 C10.72 15 5.44 15 0 15 C0 10.05 0 5.1 0 0 Z " fill="#323232" transform="translate(96,143)"/>
<path d="M0 0 C5.28 0 10.56 0 16 0 C16 4.95 16 9.9 16 15 C10.72 15 5.44 15 0 15 C0 10.05 0 5.1 0 0 Z " fill="#626262" transform="translate(128,127)"/>
<path d="M0 0 C5.28 0 10.56 0 16 0 C16 4.95 16 9.9 16 15 C10.72 15 5.44 15 0 15 C0 10.05 0 5.1 0 0 Z " fill="#575757" transform="translate(48,127)"/>
<path d="M0 0 C5.28 0 10.56 0 16 0 C16 4.95 16 9.9 16 15 C10.72 15 5.44 15 0 15 C0 10.05 0 5.1 0 0 Z " fill="#323232" transform="translate(209,111)"/>
<path d="M0 0 C5.28 0 10.56 0 16 0 C16 4.95 16 9.9 16 15 C10.72 15 5.44 15 0 15 C0 10.05 0 5.1 0 0 Z " fill="#323232" transform="translate(48,111)"/>
<path d="M0 0 C5.28 0 10.56 0 16 0 C16 4.95 16 9.9 16 15 C10.72 15 5.44 15 0 15 C0 10.05 0 5.1 0 0 Z " fill="#212121" transform="translate(144,79)"/>
<path d="M0 0 C5.28 0 10.56 0 16 0 C16 4.95 16 9.9 16 15 C10.72 15 5.44 15 0 15 C0 10.05 0 5.1 0 0 Z " fill="#323232" transform="translate(0,79)"/>
<path d="M0 0 C5.28 0 10.56 0 16 0 C16 4.95 16 9.9 16 15 C10.72 15 5.44 15 0 15 C0 10.05 0 5.1 0 0 Z " fill="#979797" transform="translate(16,47)"/>
<path d="M0 0 C5.28 0 10.56 0 16 0 C16 4.95 16 9.9 16 15 C10.72 15 5.44 15 0 15 C0 10.05 0 5.1 0 0 Z " fill="#979797" transform="translate(209,31)"/>
<path d="M0 0 C5.28 0 10.56 0 16 0 C16 4.95 16 9.9 16 15 C10.72 15 5.44 15 0 15 C0 10.05 0 5.1 0 0 Z " fill="#212121" transform="translate(16,31)"/>
<path d="M0 0 C5.28 0 10.56 0 16 0 C16 4.95 16 9.9 16 15 C10.72 15 5.44 15 0 15 C0 10.05 0 5.1 0 0 Z " fill="#979797" transform="translate(48,15)"/>
<path d="M0 0 C4.95 0 9.9 0 15 0 C15 5.28 15 10.56 15 16 C10.05 16 5.1 16 0 16 C0 10.72 0 5.44 0 0 Z " fill="#323232" transform="translate(129,14)"/>
<path d="M0 0 C5.28 0 10.56 0 16 0 C16 4.95 16 9.9 16 15 C13.545625 15.020625 11.09125 15.04125 8.5625 15.0625 C7.78849854 15.071604 7.01449707 15.08070801 6.21704102 15.09008789 C4.47778283 15.09724913 2.73854696 15.05024702 1 15 C0 14 0 14 -0.09765625 10.83984375 C-0.04882812 5.41992188 -0.04882812 5.41992188 0 0 Z " fill="#313131" transform="translate(144,159)"/>
<path d="M0 0 C4.95 0 9.9 0 15 0 C15 4.95 15 9.9 15 15 C9.72 15 4.44 15 -1 15 C-0.67 10.05 -0.34 5.1 0 0 Z " fill="#575757" transform="translate(241,111)"/>
<path d="M0 0 C4.95 0 9.9 0 15 0 C15 4.95 15 9.9 15 15 C10.05 15 5.1 15 0 15 C0 10.05 0 5.1 0 0 Z " fill="#636363" transform="translate(241,239)"/>
<path d="M0 0 C4.95 0 9.9 0 15 0 C15 4.95 15 9.9 15 15 C10.05 15 5.1 15 0 15 C0 10.05 0 5.1 0 0 Z " fill="#323232" transform="translate(113,159)"/>
<path d="M0 0 C4.95 0 9.9 0 15 0 C15 4.95 15 9.9 15 15 C10.05 15 5.1 15 0 15 C0 10.05 0 5.1 0 0 Z " fill="#989898" transform="translate(209,95)"/>
<path d="M0 0 C4.95 0 9.9 0 15 0 C15 4.95 15 9.9 15 15 C10.05 15 5.1 15 0 15 C0 10.05 0 5.1 0 0 Z " fill="#212121" transform="translate(241,95)"/>
<path d="M0 0 C4.95 0 9.9 0 15 0 C15 4.95 15 9.9 15 15 C10.05 15 5.1 15 0 15 C0 10.05 0 5.1 0 0 Z " fill="#575757" transform="translate(113,63)"/>
<path d="M0 0 C4.95 0 9.9 0 15 0 C15 4.95 15 9.9 15 15 C10.05 15 5.1 15 0 15 C0 10.05 0 5.1 0 0 Z " fill="#989898" transform="translate(113,47)"/>
<path d="M0 0 C4.95 0 9.9 0 15 0 C15 4.95 15 9.9 15 15 C10.05 15 5.1 15 0 15 C0 10.05 0 5.1 0 0 Z " fill="#212121" transform="translate(81,47)"/>
<path d="M0 0 C4.95 0 9.9 0 15 0 C15 4.95 15 9.9 15 15 C10.05 15 5.1 15 0 15 C0 10.05 0 5.1 0 0 Z " fill="#313131" transform="translate(145,31)"/>
<path d="M0 0 C4.95 0 9.9 0 15 0 C15 4.95 15 9.9 15 15 C10.05 15 5.1 15 0 15 C0 10.05 0 5.1 0 0 Z " fill="#989898" transform="translate(129,31)"/>
<path d="M0 0 C4.95 0 9.9 0 15 0 C15 4.95 15 9.9 15 15 C10.05 15 5.1 15 0 15 C0 10.05 0 5.1 0 0 Z " fill="#636363" transform="translate(241,31)"/>
<path d="M0 0 C4.95 0 9.9 0 15 0 C15 4.95 15 9.9 15 15 C10.05 15 5.1 15 0 15 C0 10.05 0 5.1 0 0 Z " fill="#989898" transform="translate(81,15)"/>
<path d="M0 0 C4.95 0 9.9 0 15 0 C15 4.95 15 9.9 15 15 C10.05 15 5.1 15 0 15 C0 10.05 0 5.1 0 0 Z " fill="#323232" transform="translate(241,15)"/>
<path d="M0 0 C4.95 0 9.9 0 15 0 C15 4.95 15 9.9 15 15 C10.05 15 5.1 15 0 15 C0 10.05 0 5.1 0 0 Z " fill="#323232" transform="translate(209,15)"/>
<path d="M0 0 C4.95 0 9.9 0 15 0 C15 4.95 15 9.9 15 15 C10.05 15 5.1 15 0 15 C0 10.05 0 5.1 0 0 Z " fill="#636363" transform="translate(177,15)"/>
<path d="M0 0 C4.95 0 9.9 0 15 0 C15 4.95 15 9.9 15 15 C10.05 15 5.1 15 0 15 C0 10.05 0 5.1 0 0 Z " fill="#989898" transform="translate(113,15)"/>
<path d="M0 0 C5.28 0 10.56 0 16 0 C16 4.62 16 9.24 16 14 C10.72 14 5.44 14 0 14 C0 9.38 0 4.76 0 0 Z " fill="#565656" transform="translate(209,0)"/>
<path d="M0 0 C5.28 0 10.56 0 16 0 C16 4.62 16 9.24 16 14 C10.72 14 5.44 14 0 14 C0 9.38 0 4.76 0 0 Z " fill="#555555" transform="translate(161,0)"/>
<path d="M0 0 C5.28 0 10.56 0 16 0 C16 4.62 16 9.24 16 14 C10.72 14 5.44 14 0 14 C0 9.38 0 4.76 0 0 Z " fill="#565656" transform="translate(80,0)"/>
<path d="M0 0 C5.28 0 10.56 0 16 0 C16.09765625 10.05859375 16.09765625 10.05859375 16 13 C15 14 15 14 11.62109375 14.09765625 C10.22652923 14.09098369 8.83198257 14.07902532 7.4375 14.0625 C6.37112305 14.05573242 6.37112305 14.05573242 5.28320312 14.04882812 C3.52209987 14.03700864 1.76103964 14.01907263 0 14 C0 9.38 0 4.76 0 0 Z " fill="#626262" transform="translate(113,0)"/>
<path d="M0 0 C0.33 0 0.66 0 1 0 C1 4.95 1 9.9 1 15 C11.23 15 21.46 15 32 15 C32 15.33 32 15.66 32 16 C21.77 16 11.54 16 1 16 C1 20.95 1 25.9 1 31 C5.89153471 30.9604321 5.89153471 30.9604321 10.78295898 30.90991211 C12.52221717 30.90275087 14.26145304 30.94975298 16 31 C17 32 17 32 17.09765625 35.59765625 C17.09191272 37.08597255 17.07889891 38.57426296 17.0625 40.0625 C17.041875 42.681875 17.02125 45.30125 17 48 C11.39 48 5.78 48 0 48 C0 42.72 0 37.44 0 32 C-5.28 32 -10.56 32 -16 32 C-16 31.67 -16 31.34 -16 31 C-10.72 31 -5.44 31 0 31 C0 26.05 0 21.1 0 16 C-26.4 16 -52.8 16 -80 16 C-80 15.67 -80 15.34 -80 15 C-53.6 15 -27.2 15 0 15 C0 10.05 0 5.1 0 0 Z M1 32 C1 36.95 1 41.9 1 47 C5.95 47 10.9 47 16 47 C16 42.05 16 37.1 16 32 C11.05 32 6.1 32 1 32 Z " fill="#474747" transform="translate(96,175)"/>
<path d="M0 0 C4.95 0 9.9 0 15 0 C15 4.62 15 9.24 15 14 C10.05 14 5.1 14 0 14 C0 9.38 0 4.76 0 0 Z " fill="#575757" transform="translate(241,0)"/>
<path d="M0 0 C4.95 0 9.9 0 15 0 C15 4.62 15 9.24 15 14 C10.05 14 5.1 14 0 14 C0 9.38 0 4.76 0 0 Z " fill="#979797" transform="translate(97,0)"/>
<path d="M0 0 C0.33 0 0.66 0 1 0 C1 5.28 1 10.56 1 16 C-20.12 16 -41.24 16 -63 16 C-63 20.95 -63 25.9 -63 31 C-58.05 31 -53.1 31 -48 31 C-48 31.33 -48 31.66 -48 32 C-52.95 32 -57.9 32 -63 32 C-63 36.95 -63 41.9 -63 47 C-63.33 47 -63.66 47 -64 47 C-64 42.05 -64 37.1 -64 32 C-74.56 32 -85.12 32 -96 32 C-96 31.67 -96 31.34 -96 31 C-85.44 31 -74.88 31 -64 31 C-64 25.72 -64 20.44 -64 15 C-42.88 15 -21.76 15 0 15 C0 10.05 0 5.1 0 0 Z " fill="#414141" transform="translate(192,207)"/>
<path d="M0 0 C0.33 0 0.66 0 1 0 C1 4.95 1 9.9 1 15 C5.95 15 10.9 15 16 15 C16 15.33 16 15.66 16 16 C11.05 16 6.1 16 1 16 C1 20.95 1 25.9 1 31 C16.51 31 32.02 31 48 31 C48 26.05 48 21.1 48 16 C48.33 16 48.66 16 49 16 C49 21.28 49 26.56 49 32 C32.83 32 16.66 32 0 32 C0 26.72 0 21.44 0 16 C-10.56 16 -21.12 16 -32 16 C-32 15.67 -32 15.34 -32 15 C-21.44 15 -10.88 15 0 15 C0 10.05 0 5.1 0 0 Z " fill="#434343" transform="translate(112,63)"/>
<path d="M0 0 C0.33 0 0.66 0 1 0 C1 4.62 1 9.24 1 14 C5.95 14 10.9 14 16 14 C16 9.38 16 4.76 16 0 C16.33 0 16.66 0 17 0 C17 4.62 17 9.24 17 14 C21.95 14 26.9 14 32 14 C32 14.33 32 14.66 32 15 C27.05 15 22.1 15 17 15 C17 19.95 17 24.9 17 30 C16.67 30 16.34 30 16 30 C16 25.05 16 20.1 16 15 C11.05 15 6.1 15 1 15 C1 19.95 1 24.9 1 30 C0.67 30 0.34 30 0 30 C0 25.05 0 20.1 0 15 C-4.95 15 -9.9 15 -15 15 C-15 19.95 -15 24.9 -15 30 C-15.33 30 -15.66 30 -16 30 C-16 24.72 -16 19.44 -16 14 C-10.72 14 -5.44 14 0 14 C0 9.38 0 4.76 0 0 Z " fill="#7D7D7D" transform="translate(96,0)"/>
<path d="M0 0 C0.33 0 0.66 0 1 0 C1 4.95 1 9.9 1 15 C6.28 15 11.56 15 17 15 C17 15.33 17 15.66 17 16 C11.72 16 6.44 16 1 16 C1 20.95 1 25.9 1 31 C0.67 31 0.34 31 0 31 C0 26.05 0 21.1 0 16 C-15.51 16 -31.02 16 -47 16 C-47 15.67 -47 15.34 -47 15 C-31.49 15 -15.98 15 0 15 C0 10.05 0 5.1 0 0 Z " fill="#7F7F7F" transform="translate(208,159)"/>
<path d="M0 0 C0.33 0 0.66 0 1 0 C1 4.95 1 9.9 1 15 C5.95 15 10.9 15 16 15 C16 15.33 16 15.66 16 16 C11.05 16 6.1 16 1 16 C1 20.95 1 25.9 1 31 C0.67 31 0.34 31 0 31 C0 26.05 0 21.1 0 16 C-10.56 16 -21.12 16 -32 16 C-32 15.67 -32 15.34 -32 15 C-21.44 15 -10.88 15 0 15 C0 10.05 0 5.1 0 0 Z " fill="#474747" transform="translate(128,223)"/>
</svg>
